<svg width="28" height="28" viewBox="0 0 28 28" fill="none" xmlns="http://www.w3.org/2000/svg">
<path d="M21.0492 23.8157C20.9479 23.9247 20.8309 24.0245 20.6979 24.1127C18.9275 25.2869 16.867 25.9835 14.7183 26.1118C11.7566 26.2886 8.83276 25.3734 6.50008 23.5393C4.1674 21.7052 2.58766 19.0794 2.05977 16.1588C1.53187 13.2382 2.09245 10.2253 3.63542 7.69018C5.1784 5.15509 7.59674 3.27368 10.4329 2.4019C13.269 1.53013 16.3262 1.72848 19.026 2.95941C21.7258 4.19035 23.881 6.36849 25.0837 9.0817C25.9561 11.0499 26.2835 13.2007 26.0537 15.3129C25.9087 16.6451 24.5175 17.3531 23.2407 16.9462C21.9644 16.5395 21.3041 15.1589 21.2709 13.8197C21.2474 12.8719 21.0389 11.93 20.6484 11.049C19.9268 9.4211 18.6337 8.11422 17.0138 7.37566C15.394 6.6371 13.5596 6.51809 11.8579 7.04115C10.1563 7.56422 8.70526 8.69307 7.77948 10.2141C6.85369 11.7352 6.51735 13.5429 6.83408 15.2953C7.15082 17.0477 8.09866 18.6231 9.49827 19.7236C10.8979 20.8241 12.6522 21.3732 14.4292 21.2671C15.3811 21.2102 16.3042 20.9675 17.1496 20.5608L9.83712 13.2459C11.7318 11.3505 14.8038 11.3505 16.6985 13.2459L26.1329 22.6834C24.7583 24.0584 22.764 24.4359 21.0492 23.8157Z" fill="url(#paint0_linear_2591_4339)"/>
<defs>
<linearGradient id="paint0_linear_2591_4339" x1="26.1329" y1="26.1334" x2="-2.74228" y2="17.7613" gradientUnits="userSpaceOnUse">
<stop stop-color="#6949FF"/>
<stop offset="1" stop-color="#876DFF"/>
</linearGradient>
</defs>
</svg>
